<svg width="16" height="16" viewBox="0 0 16 16" xmlns="http://www.w3.org/2000/svg">
<path fill-rule="evenodd" clip-rule="evenodd" d="M8.52903 3.86627C8.82192 3.57337 8.82192 3.0985 8.52903 2.80561C8.23614 2.51271 7.76126 2.51271 7.46837 2.80561L2.82067 7.45331C2.67384 7.59022 2.58203 7.78536 2.58203 8.00195C2.58203 8.00211 2.58203 8.00228 2.58203 8.00244C2.58199 8.19443 2.65521 8.38645 2.8017 8.53293L7.46837 13.1996C7.76126 13.4925 8.23614 13.4925 8.52903 13.1996C8.82192 12.9067 8.82192 12.4318 8.52903 12.1389L5.14204 8.75195H12.6654C13.0796 8.75195 13.4154 8.41617 13.4154 8.00195C13.4154 7.58774 13.0796 7.25195 12.6654 7.25195H5.14334L8.52903 3.86627Z" />
</svg>
