<svg width="16" height="16" viewBox="0 0 16 16" xmlns="http://www.w3.org/2000/svg">
<path fill-rule="evenodd" clip-rule="evenodd" d="M12.8624 2.19454C12.9869 2.06998 13.1559 2 13.332 2C13.5082 2 13.6771 2.06998 13.8017 2.19454C13.9263 2.31911 13.9962 2.48805 13.9962 2.66421C13.9962 2.84037 13.9263 3.00932 13.8017 3.13388L7.61526 9.32032L6.36281 9.63344L6.67592 8.38098L12.8624 2.19454ZM13.332 0.5C12.758 0.5 12.2076 0.728015 11.8017 1.13388L5.46837 7.46722C5.37225 7.56334 5.30406 7.68377 5.27109 7.81565L4.60442 10.4823C4.54053 10.7379 4.61542 11.0083 4.8017 11.1945C4.98799 11.3808 5.25835 11.4557 5.51393 11.3918L8.1806 10.7252C8.31247 10.6922 8.43291 10.624 8.52903 10.5279L14.8624 4.19454C15.2682 3.78868 15.4962 3.2382 15.4962 2.66421C15.4962 2.09023 15.2682 1.53975 14.8624 1.13388C14.4565 0.728015 13.906 0.5 13.332 0.5ZM2.66536 1.91406C2.11283 1.91406 1.58293 2.13356 1.19223 2.52426C0.801525 2.91496 0.582031 3.44486 0.582031 3.9974V13.3307C0.582031 13.8833 0.801525 14.4132 1.19223 14.8039C1.58293 15.1946 2.11283 15.4141 2.66536 15.4141H11.9987C12.5512 15.4141 13.0811 15.1946 13.4718 14.8039C13.8625 14.4132 14.082 13.8833 14.082 13.3307V8.66406C14.082 8.24985 13.7462 7.91406 13.332 7.91406C12.9178 7.91406 12.582 8.24985 12.582 8.66406V13.3307C12.582 13.4854 12.5206 13.6338 12.4112 13.7432C12.3018 13.8526 12.1534 13.9141 11.9987 13.9141H2.66536C2.51066 13.9141 2.36228 13.8526 2.25289 13.7432C2.14349 13.6338 2.08203 13.4854 2.08203 13.3307V3.9974C2.08203 3.84269 2.14349 3.69431 2.25289 3.58492C2.36228 3.47552 2.51065 3.41406 2.66536 3.41406H7.33203C7.74624 3.41406 8.08203 3.07828 8.08203 2.66406C8.08203 2.24985 7.74624 1.91406 7.33203 1.91406H2.66536Z"/>
</svg>
